<svg width="183"
     height="183"
     viewBox="0 0 183 183"
     fill="none"
     xmlns="http://www.w3.org/2000/svg">
    <path d="M147.394 91.6213C148.642 84.7048 148.523 77.6868 147.112 70.979C146.776 71.5423 146.424 72.1002 146.055 72.652C134.69 89.6679 112.13 94.5477 95.6671 83.5516C79.2037 72.5554 75.0708 49.8472 86.436 32.8313C86.7736 32.3259 87.121 31.8312 87.4779 31.3473C73.804 33.9799 61.0094 42.0223 52.5199 54.7328C42.6429 69.5205 40.8345 87.2711 46.1075 102.554M147.394 91.6213C131.984 96.733 120.445 110.459 118.363 127.158C113.452 123.708 107.483 121.686 101.047 121.686C95.037 121.686 89.4352 123.449 84.7209 126.491C75.0254 114.601 61.5285 105.99 46.1075 102.554M147.394 91.6213C151.592 90.2288 156.076 89.4756 160.735 89.4756C165.923 89.4756 170.895 90.4095 175.495 92.1198M46.1075 102.554C41.2643 101.474 36.2313 100.905 31.0667 100.905C23.1786 100.905 15.5976 102.233 8.5308 104.678M8.5308 104.678C7.85427 100.385 7.50299 95.9835 7.50299 91.5C7.50299 45.1097 45.1097 7.50299 91.5 7.50299C137.89 7.50299 175.497 45.1097 175.497 91.5C175.497 91.7068 175.496 91.9134 175.495 92.1198M8.5308 104.678C11.4664 123.308 20.526 139.903 33.5839 152.338C48.6534 166.688 69.048 175.497 91.5 175.497C113.952 175.497 134.347 166.688 149.416 152.338C165.344 137.17 175.324 115.811 175.495 92.1198M182 91.5C182 41.5182 141.482 1 91.5 1C41.5182 1 1 41.5182 1 91.5C1 114.923 9.89838 136.268 24.4991 152.338C41.0545 170.56 64.9412 182 91.5 182C118.059 182 141.946 170.56 158.501 152.338C172.34 137.106 181.056 117.137 181.928 95.1503C181.976 93.9395 182 92.7226 182 91.5Z"
          stroke="#FFFFFF" stroke-width="2"/>
</svg>
